<?xml version="1.0" encoding="utf-8"?><svg xmlns="http://www.w3.org/2000/svg" xmlns:xlink="http://www.w3.org/1999/xlink"><symbol viewBox="-7 -7 22.03 20" id="check-icon" xmlns="http://www.w3.org/2000/svg"><defs><style>.acls-1{fill:#fff;fill-rule:evenodd}</style></defs><path id="aCheck_Icon" data-name="Check Icon" class="acls-1" d="M477.489 846.949l2.329 2.452a.956.956 0 0 1 0 1.305.847.847 0 0 1-1.24 0l-2.329-2.452a.958.958 0 0 1 0-1.305.847.847 0 0 1 1.24 0zm6.262-1.687a.958.958 0 0 1 0 1.305l-3.933 4.139a.847.847 0 0 1-1.24 0 .958.958 0 0 1 0-1.305l3.933-4.139a.847.847 0 0 1 1.24 0z" transform="translate(-476 -845)"/></symbol></svg>