<?xml version="1.0" encoding="iso-8859-1"?>
<!-- Generator: Adobe Illustrator 19.0.0, SVG Export Plug-In . SVG Version: 6.00 Build 0)  -->
<svg version="1.1" id="Layer_1" xmlns="http://www.w3.org/2000/svg" xmlns:xlink="http://www.w3.org/1999/xlink" x="0px" y="0px"
	 viewBox="0 0 512 512" style="enable-background:new 0 0 512 512;" xml:space="preserve">
<path style="fill:#5D7EAC;" d="M512,203.622v26.842c0,9.405-6.639,17.504-15.862,19.348l-49.199,9.839
	c-3.426,12.242-8.28,23.879-14.388,34.726l27.834,41.751c5.217,7.826,4.185,18.246-2.465,24.897l-18.981,18.981
	c-6.65,6.65-17.071,7.682-24.897,2.465l-41.751-27.834c-10.847,6.11-22.483,10.964-34.726,14.388l-4.107,20.539h-77.003
	l-4.108-20.539c-12.242-3.426-23.879-8.28-34.726-14.388l-41.751,27.834c-7.826,5.217-18.246,4.185-24.897-2.465l-18.981-18.981
	c-6.65-6.65-7.682-17.071-2.465-24.897l27.834-41.751c-6.109-10.847-10.963-22.483-14.388-34.726l-49.199-9.839
	c-9.222-1.844-15.861-9.943-15.861-19.348v-26.842c0-9.405,6.639-17.504,15.862-19.348l49.199-9.839
	c3.426-12.241,8.28-23.879,14.388-34.726l-27.834-41.751c-5.217-7.826-4.185-18.246,2.465-24.897l18.981-18.981
	c6.65-6.65,17.071-7.682,24.897-2.465l41.751,27.834c10.847-6.109,22.483-10.963,34.726-14.388l9.839-49.199
	C264.032,6.638,272.13,0,281.535,0h26.842c9.405,0,17.504,6.638,19.348,15.862l9.839,49.199c12.242,3.426,23.879,8.28,34.726,14.388
	l41.751-27.834c7.826-5.217,18.246-4.185,24.897,2.465l18.981,18.981c6.65,6.65,7.682,17.071,2.465,24.897l-27.834,41.751
	c6.109,10.847,10.963,22.483,14.388,34.726l49.199,9.839C505.361,186.119,512,194.217,512,203.622z"/>
<path style="fill:#809DED;" d="M311.08,320.346c-29.102,4.542-57.265-3.393-79.064-19.824h-31.668V267.13h2.807
	c-5.616-10.293-9.589-21.711-11.501-33.963c-8.904-57.052,30.126-110.522,87.179-119.426
	c57.052-8.904,110.522,30.126,119.426,87.179C407.165,257.971,368.134,311.442,311.08,320.346z"/>
<path style="fill:#CEDEEC;" d="M354.276,207.784c5.113,32.761-17.3,63.466-50.061,68.579c-32.761,5.113-63.466-17.3-68.579-50.061
	s17.3-63.466,50.061-68.579S349.163,175.023,354.276,207.784z"/>
<path style="fill:#809DED;" d="M329.046,211.723c2.938,18.827-9.942,36.471-28.768,39.41s-36.471-9.942-39.41-28.768
	c-2.938-18.826,9.942-36.471,28.768-39.41C308.462,180.017,326.106,192.896,329.046,211.723z"/>
<path style="fill:#5D7EAC;" d="M300.277,251.133c-6.559,1.024-12.974,0.122-18.675-2.276c14.296-5.99,23.229-21.131,20.732-37.133
	c-1.914-12.267-10.075-22.005-20.735-26.492c2.524-1.057,5.211-1.835,8.037-2.276c18.827-2.938,36.471,9.942,39.41,28.768
	C331.984,230.549,319.104,248.193,300.277,251.133z"/>
<path style="fill:#F5D472;" d="M311.652,512H171.567c-10.046,0-19.683-3.978-26.803-11.063
	c-7.168-7.132-16.827-11.198-26.939-11.198h-11.13H66.783V322.783h39.605h11.13c9.581,0,18.088-6.131,21.119-15.221l3.109-9.325
	c9.325-27.975,14.08-57.271,14.08-86.758l0,0c0-6.174,2.515-11.754,6.576-15.781c5.183-5.141,13.217-6.155,19.72-2.836
	c10.819,5.523,18.226,16.768,18.226,29.748l-0.003,66.781h11.13h100.177c12.295,0,22.261,9.966,22.261,22.261v11.13
	c0,12.295-9.966,22.261-22.261,22.261c12.295,0,22.261,9.966,22.261,22.261v11.13c0,12.295-9.966,22.261-22.261,22.261
	c12.295,0,22.261,9.966,22.261,22.261v11.13c0,12.295-9.966,22.261-22.261,22.261c12.295,0,22.261,9.966,22.261,22.261v11.13
	C333.913,502.034,323.947,512,311.652,512z"/>
<path style="fill:#D9B166;" d="M211.478,222.61l-0.003,66.781h-11.129c-12.295,0-22.262-9.967-22.261-22.262l0.002-44.52
	c0-11.557-5.871-21.74-14.792-27.735c3.935-3.507,9.106-5.658,14.792-5.658l0,0C196.529,189.217,211.479,204.169,211.478,222.61z
	 M345.043,322.783v-11.13c0-12.295-9.966-22.261-22.261-22.261h-16.696c9.22,0,16.696,7.475,16.696,16.696
	s-7.475,16.696-16.696,16.696h-5.565h-38.957H244.87c-6.147,0-11.13,4.983-11.13,11.13s4.983,11.13,11.13,11.13h16.696h38.957h5.565
	c9.22,0,16.696,7.475,16.696,16.696c0,9.22-7.475,16.696-16.696,16.696h-5.565h-38.957H244.87c-6.147,0-11.13,4.983-11.13,11.13
	c0,6.147,4.983,11.13,11.13,11.13h16.696h38.957h5.565c9.22,0,16.696,7.475,16.696,16.696c0,9.22-7.475,16.696-16.696,16.696h-5.565
	h-38.957H244.87c-6.147,0-11.13,4.983-11.13,11.13c0,6.147,4.983,11.13,11.13,11.13h16.696h38.957h5.565
	c9.22,0,16.696,7.475,16.696,16.696s-7.475,16.696-16.696,16.696h-5.565h-38.957H244.87c-6.147,0-11.13,4.983-11.13,11.13
	c0,6.147,4.983,11.13,11.13,11.13h44.522h22.261h11.13c12.295,0,22.261-9.966,22.261-22.261v-11.13
	c0-12.295-9.966-22.261-22.261-22.261c12.295,0,22.261-9.966,22.261-22.261v-11.13c0-12.295-9.966-22.261-22.261-22.261
	c12.295,0,22.261-9.966,22.261-22.261v-11.13c0-12.295-9.966-22.261-22.261-22.261C335.077,345.043,345.043,335.077,345.043,322.783
	z M66.783,489.739h44.522V322.783H66.783V489.739z"/>
<path style="fill:#809DED;" d="M89.043,311.652V500.87c0,6.147-4.983,11.13-11.13,11.13H11.13C4.983,512,0,507.017,0,500.87V311.652
	c0-6.147,4.983-11.13,11.13-11.13h66.783C84.06,300.522,89.043,305.505,89.043,311.652z"/>
<path style="fill:#5D7EAC;" d="M89.043,311.652V500.87c0,6.147-4.983,11.13-11.13,11.13H44.522c6.147,0,11.13-4.983,11.13-11.13
	V311.652c0-6.147-4.983-11.13-11.13-11.13h33.391C84.06,300.522,89.043,305.505,89.043,311.652z"/>
<g>
</g>
<g>
</g>
<g>
</g>
<g>
</g>
<g>
</g>
<g>
</g>
<g>
</g>
<g>
</g>
<g>
</g>
<g>
</g>
<g>
</g>
<g>
</g>
<g>
</g>
<g>
</g>
<g>
</g>
</svg>
